<svg width="60" height="48" viewBox="0 0 60 48" fill="none" xmlns="http://www.w3.org/2000/svg">
<path fill-rule="evenodd" clip-rule="evenodd" d="M14.091 12.7274C14.091 10.104 11.9567 7.96992 9.3335 7.96992C8.84811 7.96992 8.45459 7.57641 8.45459 7.09102C8.45459 6.60551 8.84811 6.21211 9.3335 6.21211C11.9569 6.21211 14.091 4.07789 14.091 1.45465C14.091 0.96926 14.4845 0.575745 14.9699 0.575745C15.4553 0.575745 15.8488 0.96926 15.8488 1.45465C15.8488 4.07789 17.983 6.21211 20.6062 6.21211C21.0916 6.21211 21.4851 6.60551 21.4851 7.09102C21.4851 7.57641 21.0916 7.96992 20.6062 7.96992C17.983 7.96992 15.8488 10.1041 15.8488 12.7274C15.8488 13.2128 15.4553 13.6063 14.9699 13.6063C14.4845 13.6063 14.091 13.2128 14.091 12.7274ZM17.3408 7.09102C16.3597 6.52043 15.5404 5.70117 14.9699 4.72008C14.3993 5.70117 13.5799 6.52043 12.599 7.09102C13.58 7.66149 14.3993 8.48086 14.9699 9.46184C15.5404 8.48086 16.3597 7.66149 17.3408 7.09102ZM38.4543 41.9088H5.5759C3.47063 41.9088 1.75781 40.1961 1.75781 38.0909V11.7879C1.75781 9.68263 3.47063 7.96994 5.5759 7.96994C6.06129 7.96994 6.4548 7.57642 6.4548 7.09103C6.4548 6.60553 6.06129 6.21213 5.5759 6.21213C2.50137 6.21213 0 8.71338 0 11.7879V38.0909C0 41.1654 2.50137 43.6667 5.5759 43.6667H38.4543C38.9396 43.6667 39.3332 43.2733 39.3332 42.7877C39.3332 42.3025 38.9396 41.9088 38.4543 41.9088ZM54.424 6.21213H25.3027C24.8173 6.21213 24.4238 6.60553 24.4238 7.09103C24.4238 7.57642 24.8173 7.96994 25.3027 7.96994H54.424C56.5292 7.96994 58.242 9.68263 58.242 11.7879V38.0909C58.242 40.1961 56.5292 41.9088 54.424 41.9088H53.4846C52.9992 41.9088 52.6057 42.3024 52.6057 42.7877C52.6057 43.2733 52.9992 43.6667 53.4846 43.6667H54.424C57.4985 43.6667 59.9999 41.1654 59.9999 38.0909V11.7879C59.9999 8.71338 57.4985 6.21213 54.424 6.21213ZM49.727 41.9088C48.1397 41.9088 46.8484 40.6174 46.8484 39.0302C46.8484 38.5449 46.4549 38.1513 45.9695 38.1513C45.4841 38.1513 45.0906 38.5449 45.0906 39.0302C45.0906 40.6175 43.7992 41.9088 42.2119 41.9088C41.7265 41.9088 41.333 42.3023 41.333 42.7877C41.333 43.2732 41.7265 43.6666 42.2119 43.6666C43.7992 43.6666 45.0906 44.9581 45.0906 46.5454C45.0906 47.0307 45.4841 47.4243 45.9695 47.4243C46.4549 47.4243 46.8484 47.0307 46.8484 46.5454C46.8484 44.9581 48.1398 43.6666 49.727 43.6666C50.2124 43.6666 50.6059 43.2732 50.6059 42.7877C50.6059 42.3025 50.2124 41.9088 49.727 41.9088ZM45.9694 43.832C45.679 43.431 45.3262 43.0781 44.9252 42.7877C45.3261 42.4973 45.679 42.1445 45.9694 41.7436C46.2598 42.1445 46.6127 42.4975 47.0137 42.7877C46.6127 43.0781 46.2598 43.4311 45.9694 43.832ZM12.397 17.4243C12.397 16.9389 12.7905 16.5453 13.2759 16.5453C13.7613 16.5453 14.1548 16.9389 14.1549 17.4243V31.5751C15.2498 31.5778 17.2014 31.5703 18.5342 31.5629H18.5392C19.0224 31.5629 19.4153 31.9532 19.418 32.4369C19.4207 32.9223 19.0294 33.318 18.544 33.3207C16.8531 33.3301 15.6983 33.3337 14.907 33.3337C13.2775 33.3337 13.1884 33.3185 13.1274 33.3081L13.1273 33.3081C12.7054 33.2357 12.397 32.8699 12.397 32.4418V17.4243ZM37.2864 33.173C37.4402 33.2814 37.6168 33.3335 37.7918 33.3335C38.068 33.3335 38.3399 33.2037 38.5111 32.9607L43.4622 25.9324L48.4062 32.9602C48.5773 33.2034 48.8494 33.3335 49.1258 33.3335C49.3005 33.3335 49.477 33.2815 49.6308 33.1733C50.0278 32.8941 50.1232 32.3457 49.8439 31.9488L44.5377 24.4059L49.0996 17.9304C49.379 17.5336 49.284 16.9853 48.8872 16.7057C48.4904 16.4261 47.9421 16.5212 47.6625 16.918L43.4633 22.8786L39.2705 16.9185C38.9911 16.5213 38.4429 16.4261 38.0458 16.7053C37.6488 16.9846 37.5534 17.5329 37.8327 17.9298L42.3879 24.4051L37.074 31.9482C36.7945 32.3452 36.8896 32.8935 37.2864 33.173ZM27.9847 33.3334C26.7971 33.3318 25.7063 33.0188 24.7423 32.4028C22.8826 31.2147 21.9786 29.6982 21.9785 27.7666V17.4243C21.9785 16.9389 22.372 16.5453 22.8574 16.5453C23.3428 16.5453 23.7363 16.9389 23.7363 17.4243V27.7666C23.7363 29.1036 24.3202 30.0472 25.6886 30.9214C26.366 31.3543 27.1393 31.5744 27.987 31.5756H27.9943C28.7491 31.5757 29.4485 31.4162 30.0735 31.1014C31.6541 30.3054 32.4225 29.211 32.4225 27.7559V17.4243C32.4225 16.9389 32.816 16.5453 33.3014 16.5453C33.7868 16.5453 34.1803 16.9389 34.1803 17.4243V27.7559C34.1803 29.8791 33.0336 31.5788 30.8641 32.6714C29.9918 33.1106 29.0264 33.3334 27.9946 33.3334H27.9847Z" fill="#C5AC2D"/>
</svg>
