<svg width="25" height="25" viewBox="0 0 25 25" fill="none" xmlns="http://www.w3.org/2000/svg">
<path fill-rule="evenodd" clip-rule="evenodd" d="M0 12.5C0 5.60762 5.60708 0 12.5 0C19.3929 0 25 5.60762 25 12.5C25 19.3924 19.3929 25 12.5 25C5.60708 25 0 19.3924 0 12.5ZM1.04165 12.5C1.04165 18.8182 6.18184 23.9583 12.5 23.9583C18.8182 23.9583 23.9583 18.8182 23.9583 12.5C23.9583 6.18184 18.8182 1.04165 12.5 1.04165C6.18184 1.04165 1.04165 6.18184 1.04165 12.5ZM10.1776 7.37451L17.4693 12.062C17.6178 12.1577 17.7083 12.3229 17.7083 12.5C17.7083 12.677 17.6178 12.8423 17.4693 12.9379L10.1776 17.6254C10.0922 17.6808 9.99351 17.7083 9.89585 17.7083C9.8104 17.7083 9.72393 17.687 9.64663 17.6447C9.47876 17.5532 9.375 17.3782 9.375 17.1874V7.81245C9.375 7.62173 9.47876 7.44673 9.64663 7.35518C9.81143 7.26465 10.0179 7.27026 10.1776 7.37451ZM16.2242 12.5L10.4166 8.76665V16.2332L16.2242 12.5Z" fill="#FEFEFE"/>
</svg>
