<svg width="36" height="36" viewBox="0 0 36 36" fill="none" xmlns="http://www.w3.org/2000/svg">
<path fill-rule="evenodd" clip-rule="evenodd" d="M27.8447 14.9022H10.9691C9.80584 14.9022 8.85962 13.9562 8.85962 12.7933V2.10883C8.85962 0.945924 9.80584 0 10.9691 0H27.8447C29.008 0 29.9542 0.945924 29.9542 2.10883V12.7933C29.9542 13.9562 29.008 14.9022 27.8447 14.9022ZM10.266 5.62336H28.5478V4.21766H10.266V5.62336ZM10.9691 13.4964H27.8447C28.2324 13.4964 28.5478 13.1809 28.5478 12.7933V7.02934H10.266V12.7933C10.266 13.1809 10.5814 13.4964 10.9691 13.4964ZM27.8447 1.40598H10.9691C10.5814 1.40598 10.266 1.72129 10.266 2.10883V2.81168H28.5478V2.10883C28.5478 1.72129 28.2324 1.40598 27.8447 1.40598ZM9.09148 35.7979C8.81537 36.0698 8.37165 36.0668 8.09911 35.7921L0.204067 27.8391C-0.0684794 27.5647 -0.06793 27.1217 0.205166 26.8479L3.55017 23.494C4.05735 22.987 4.76234 22.7848 5.4308 22.9115C7.01799 19.9792 9.97506 18.4169 13.3599 18.4169C14.5814 18.4169 15.7653 18.6532 16.881 19.1198H24.7219C25.5852 19.1198 26.3841 19.5216 26.9081 20.1663L31.0573 15.903C32.0609 14.7395 33.8253 14.597 35.0031 15.5893C36.1884 16.591 36.3381 18.3686 35.3372 19.5524C28.9975 27.1271 28.9845 27.1491 28.9656 27.1634C28.9643 27.1644 28.9631 27.1652 28.9601 27.1681C27.7719 28.3242 26.2045 28.9608 24.5461 28.9608H15.1985C14.649 28.9608 14.1292 29.1709 13.7344 29.5522L13.0011 30.2591C13.2558 31.0043 13.0797 31.8615 12.5005 32.4405L9.09148 35.7979ZM16.4552 20.4667C15.4779 20.0394 14.4366 19.8227 13.3596 19.8227C10.3548 19.8227 7.93893 21.1959 6.65148 23.6105L12.1601 29.1171L12.7577 28.5406C13.4154 27.9053 14.2825 27.5551 15.1985 27.5551H24.5461C25.8242 27.5551 27.0334 27.0687 27.9543 26.1848L34.2611 18.6477C34.7636 18.053 34.6886 17.1642 34.0962 16.6635C33.5044 16.1647 32.6148 16.2397 32.1137 16.8311C32.0974 16.8505 31.8349 17.1201 30.4365 18.5568C29.7602 19.2517 28.8181 20.2195 27.5098 21.564C27.5257 21.6854 27.5345 21.8079 27.5345 21.9315C27.5345 23.4819 26.2729 24.7432 24.7219 24.7432H18.985C18.5968 24.7432 18.2819 24.4287 18.2819 24.0403C18.2819 23.6522 18.5968 23.3375 18.985 23.3375H24.7219C25.4975 23.3375 26.1284 22.7068 26.1284 21.9315C26.1284 21.1473 25.4844 20.5258 24.7219 20.5258H16.7371C16.6401 20.5258 16.5442 20.5057 16.4552 20.4667ZM5.41596 24.3886C5.13325 24.2139 4.77718 24.2556 4.5453 24.4875L1.69483 27.3453L8.60381 34.3049L11.5101 31.4426C11.751 31.2015 11.7804 30.8079 11.5746 30.5308C11.5375 30.4811 5.52338 24.4539 5.41596 24.3886Z" fill="#332208"/>
</svg>
